<svg width="98" height="96" viewBox="0 0 98 96" fill="none" xmlns="http://www.w3.org/2000/svg">
<g clip-path="url(#clip0_2027_3688)">
<path d="M80.6458 0H17.3542C7.76973 0 0 7.8063 0 17.4359V78.5641C0 88.1937 7.76973 96 17.3542 96H80.6458C90.2303 96 98 88.1937 98 78.5641V17.4359C98 7.8063 90.2303 0 80.6458 0Z" fill="#00005B"/>
<path d="M39.3706 57.4355H24.183L21.0928 67.0978C21.0524 67.2745 20.9513 67.4311 20.8071 67.5401C20.6629 67.6491 20.485 67.7034 20.3049 67.6934H12.6212C12.1833 67.6934 12.0303 67.4494 12.1623 66.9652L25.3113 29.077C25.4413 28.6812 25.5733 28.2931 25.7052 27.7878C25.8775 26.9062 25.9652 26.0099 25.9672 25.1115C25.9525 25.0042 25.9806 24.8955 26.0455 24.8091C26.1104 24.7227 26.2067 24.6656 26.3134 24.6503C26.3514 24.6445 26.3901 24.6445 26.4281 24.6503H36.8808C37.1867 24.6503 37.3627 24.7599 37.4067 24.9808L52.3226 67.0324C52.4501 67.4731 52.3188 67.6934 51.9287 67.6934H43.3807C43.2338 67.7093 43.0862 67.6711 42.9652 67.586C42.8442 67.5008 42.7581 67.3745 42.7229 67.2303L39.3706 57.4355ZM26.5581 49.2892H36.9458C36.6819 48.4092 36.3746 47.4185 36.0241 46.3169C35.6735 45.2154 35.3012 44.0376 34.9073 42.7836L33.7235 39.0179C33.3296 37.7639 32.9682 36.5528 32.6393 35.3847C32.3104 34.2165 32.012 33.1489 31.7443 32.1819H31.6774C31.3083 33.9658 30.8475 35.7294 30.2967 37.4655C29.6835 39.4482 29.0588 41.4739 28.4226 43.5425C27.7865 45.6112 27.1624 47.5267 26.5505 49.2892H26.5581Z" fill="#9999FF"/>
<path d="M76.5152 53.6756H63.5631C63.7215 54.963 64.1469 56.2027 64.8119 57.3146C65.5473 58.4153 66.5868 59.2761 67.8027 59.7912C69.4515 60.508 71.2348 60.8592 73.031 60.821C74.4554 60.7937 75.8743 60.6368 77.2706 60.3522C78.5197 60.1811 79.7436 59.8585 80.9154 59.3915C81.1347 59.2173 81.2443 59.3275 81.2443 59.722V65.997C81.2642 66.1536 81.2374 66.3126 81.1673 66.4538C81.0971 66.5951 80.9869 66.7122 80.8504 66.7905C79.5497 67.3688 78.1809 67.7781 76.7772 68.0086C74.8705 68.3693 72.9324 68.5354 70.9924 68.5043C67.8792 68.5043 65.2715 68.0201 63.1692 67.0518C61.1811 66.1716 59.4249 64.8374 58.0404 63.1554C56.7492 61.5704 55.7881 59.741 55.214 57.7757C54.6466 55.8338 54.3588 53.8204 54.3592 51.7966C54.3536 49.5875 54.6977 47.3916 55.3785 45.2911C56.0354 43.242 57.0737 41.3369 58.4381 39.677C59.7834 38.0363 61.4658 36.7071 63.37 35.7806C65.2976 34.8334 67.5771 34.4933 70.2065 34.4933C72.3877 34.4392 74.5539 34.8682 76.5515 35.7499C78.2306 36.4686 79.7086 37.5901 80.8561 39.0161C81.9339 40.4123 82.7574 41.989 83.2886 43.6733C83.8066 45.2962 84.073 46.9894 84.0784 48.6937C84.0784 49.662 84.0452 50.5426 83.9789 51.3355C83.9139 52.1271 83.8584 52.6996 83.8164 53.0531C83.7987 53.1987 83.7286 53.3327 83.6195 53.43C83.5103 53.5273 83.3695 53.5812 83.2236 53.5815C82.9609 53.5815 82.5115 53.6142 81.8754 53.6795C81.2405 53.7467 80.4507 53.789 79.5099 53.8121C78.569 53.8351 77.567 53.6756 76.5152 53.6756ZM63.5631 47.6581H72.1685C73.2203 47.6581 73.998 47.6472 74.5015 47.6254C74.8395 47.5914 75.1659 47.4832 75.4577 47.3084V46.9107C75.4437 46.3946 75.3548 45.8832 75.1938 45.3929C74.8393 44.2657 74.1262 43.2866 73.164 42.6063C72.2017 41.9259 71.0438 41.5819 69.868 41.6271C68.7617 41.5605 67.66 41.8185 66.6971 42.3698C65.7342 42.921 64.9516 43.7418 64.4447 44.732C63.9969 45.6537 63.6992 46.6416 63.5631 47.6581Z" fill="#9999FF"/>
</g>
<defs>
<clipPath id="clip0_2027_3688">
<rect width="98" height="96" fill="white"/>
</clipPath>
</defs>
</svg>
