<svg width="94" height="94" viewBox="0 0 94 94" fill="none" xmlns="http://www.w3.org/2000/svg">
<g clip-path="url(#clip0_2027_3654)">
<path d="M46.9669 93.9337C72.9059 93.9337 93.9337 72.9059 93.9337 46.9669C93.9337 21.0278 72.9059 0 46.9669 0C21.0278 0 0 21.0278 0 46.9669C0 72.9059 21.0278 93.9337 46.9669 93.9337Z" fill="#7D2AE7"/>
<path d="M46.9669 93.9337C72.9059 93.9337 93.9337 72.9059 93.9337 46.9669C93.9337 21.0278 72.9059 0 46.9669 0C21.0278 0 0 21.0278 0 46.9669C0 72.9059 21.0278 93.9337 46.9669 93.9337Z" fill="url(#paint0_radial_2027_3654)"/>
<path d="M46.9669 93.9337C72.9059 93.9337 93.9337 72.9059 93.9337 46.9669C93.9337 21.0278 72.9059 0 46.9669 0C21.0278 0 0 21.0278 0 46.9669C0 72.9059 21.0278 93.9337 46.9669 93.9337Z" fill="url(#paint1_radial_2027_3654)"/>
<path d="M46.9669 93.9337C72.9059 93.9337 93.9337 72.9059 93.9337 46.9669C93.9337 21.0278 72.9059 0 46.9669 0C21.0278 0 0 21.0278 0 46.9669C0 72.9059 21.0278 93.9337 46.9669 93.9337Z" fill="url(#paint2_radial_2027_3654)"/>
<path d="M46.9669 93.9337C72.9059 93.9337 93.9337 72.9059 93.9337 46.9669C93.9337 21.0278 72.9059 0 46.9669 0C21.0278 0 0 21.0278 0 46.9669C0 72.9059 21.0278 93.9337 46.9669 93.9337Z" fill="url(#paint3_radial_2027_3654)"/>
<path d="M82.6653 51.2275C82.5422 51.2275 82.4301 51.307 82.3722 51.4736C81.63 53.5915 80.6273 54.8513 79.8018 54.8513C79.3275 54.8513 79.1357 54.3228 79.1357 53.4938C79.1357 51.4195 80.3773 47.0208 81.0036 45.0153C81.0762 44.7725 81.1232 44.5555 81.1232 44.3708C81.1232 43.7879 80.8045 43.5019 80.0153 43.5019C79.1645 43.5019 78.2488 43.8349 77.3582 45.3954C77.0504 44.0196 76.1201 43.4186 74.8204 43.4186C73.3178 43.4186 71.8662 44.3853 70.6716 45.9529C69.477 47.5204 68.0721 48.0346 67.0152 47.7811C67.7753 45.9202 68.0577 44.53 68.0577 43.4984C68.0577 41.88 67.2576 40.9026 65.9653 40.9026C63.9994 40.9026 62.8664 42.7778 62.8664 44.7509C62.8664 46.2751 63.5577 47.8425 65.0784 48.6029C63.804 51.4845 61.9433 54.0911 61.2373 54.0911C60.3251 54.0911 60.057 49.6274 60.1077 46.4342C60.1403 44.6023 60.2924 44.5083 60.2924 43.9545C60.2924 43.6358 60.086 43.4186 59.2571 43.4186C57.3238 43.4186 56.7265 45.0551 56.636 46.934C56.6068 47.648 56.495 48.3562 56.3029 49.0445C55.4956 51.9262 53.8302 54.1128 52.7442 54.1128C52.2409 54.1128 52.1034 53.6095 52.1034 52.9507C52.1034 50.8764 53.2655 48.2842 53.2655 46.0723C53.2655 44.4469 52.5523 43.4188 51.2093 43.4188C49.6272 43.4188 47.5348 45.3012 45.5545 48.8273C46.206 46.1267 46.4742 43.5128 44.5444 43.5128C44.1258 43.5191 43.7148 43.6259 43.3461 43.8242C43.2225 43.8823 43.1192 43.9761 43.0495 44.0936C42.9798 44.211 42.9469 44.3466 42.9551 44.483C43.1398 47.3575 40.6382 54.721 38.2669 54.721C37.8362 54.721 37.6261 54.254 37.6261 53.501C37.6261 51.423 38.8642 47.0352 39.4869 45.026C39.5665 44.7653 39.6101 44.5409 39.6101 44.3455C39.6101 43.7952 39.2697 43.5128 38.4986 43.5128C37.6515 43.5128 36.732 43.8349 35.8451 45.3954C35.5337 44.0196 34.6033 43.4186 33.3036 43.4186C31.1714 43.4186 28.7892 45.6742 27.743 48.6138C26.3419 52.5381 23.5182 56.3284 19.7169 56.3284C16.2669 56.3284 14.4459 53.4576 14.4459 48.9213C14.4459 42.3724 19.2536 37.0218 22.8195 37.0218C24.5246 37.0218 25.3392 38.1078 25.3392 39.7731C25.3392 41.7895 24.2132 42.7271 24.2132 43.4947C24.2132 43.73 24.4088 43.9617 24.7961 43.9617C26.3456 43.9617 28.1701 42.1407 28.1701 39.6573C28.1701 37.1737 26.1537 35.3564 22.5878 35.3564C16.6941 35.3564 10.7642 41.2864 10.7642 48.8852C10.7642 54.931 13.7472 58.5765 18.9059 58.5765C22.4248 58.5765 25.4985 55.8398 27.1564 52.6465C27.3448 55.293 28.5466 56.6759 30.3785 56.6759C32.0076 56.6759 33.3253 55.7058 34.3317 54.0006C34.7192 55.7853 35.7473 56.6578 37.0832 56.6578C38.6144 56.6578 39.896 55.6876 41.116 53.8848C41.098 55.3004 41.4202 56.6326 42.6474 56.6326C43.2265 56.6326 43.918 56.4985 44.0413 55.9917C45.3336 50.6483 48.5266 46.2858 49.5042 46.2858C49.7938 46.2858 49.8733 46.5646 49.8733 46.894C49.8733 48.3458 48.8488 51.3216 48.8488 53.2224C48.8488 55.2748 49.7214 56.6326 51.5243 56.6326C53.5227 56.6326 55.5535 54.1851 56.9074 50.6085C57.3312 53.9499 58.2471 56.6469 59.6806 56.6469C61.44 56.6469 64.5642 52.9435 66.4577 49.0227C67.1997 49.1169 68.3147 49.0915 69.3863 48.3349C68.9302 49.4898 68.6624 50.7534 68.6624 52.0166C68.6624 55.6551 70.3999 56.6759 71.8951 56.6759C73.5206 56.6759 74.8385 55.7058 75.8484 54.0006C76.1815 55.5392 77.0323 56.6541 78.5963 56.6541C81.0434 56.6541 83.1686 54.1526 83.1686 52.0999C83.1686 51.557 82.9369 51.2275 82.6653 51.2275ZM31.8701 54.6594C30.8816 54.6594 30.4944 53.6639 30.4944 52.1797C30.4944 49.6021 32.2574 45.2975 34.1219 45.2975C34.9364 45.2975 35.2441 46.2569 35.2441 47.4299C35.2441 50.0473 33.568 54.6594 31.8701 54.6594ZM65.7227 46.9666C65.1326 46.2641 64.9191 45.3084 64.9191 44.4576C64.9191 43.4079 65.3028 42.5208 65.7625 42.5208C66.2223 42.5208 66.3635 42.9734 66.3635 43.6033C66.3635 44.6567 65.9869 46.1953 65.7227 46.9666ZM73.3867 54.6594C72.3986 54.6594 72.0111 53.5155 72.0111 52.1797C72.0111 49.6926 73.7741 45.2975 75.653 45.2975C76.4676 45.2975 76.7572 46.2497 76.7572 47.4299C76.7572 50.0473 75.1099 54.6594 73.3867 54.6594Z" fill="black"/>
</g>
<defs>
<radialGradient id="paint0_radial_2027_3654" cx="0" cy="0" r="1" gradientUnits="userSpaceOnUse" gradientTransform="translate(18.1171 83.2554) rotate(-49.416) scale(72.6499)">
<stop stop-color="#6420FF"/>
<stop offset="1" stop-color="#6420FF" stop-opacity="0"/>
</radialGradient>
<radialGradient id="paint1_radial_2027_3654" cx="0" cy="0" r="1" gradientUnits="userSpaceOnUse" gradientTransform="translate(24.8676 10.6786) rotate(54.703) scale(81.9261)">
<stop stop-color="#00C4CC"/>
<stop offset="1" stop-color="#00C4CC" stop-opacity="0"/>
</radialGradient>
<radialGradient id="paint2_radial_2027_3654" cx="0" cy="0" r="1" gradientUnits="userSpaceOnUse" gradientTransform="translate(18.144 83.2549) rotate(-45.1954) scale(71.7702 33.0081)">
<stop stop-color="#6420FF"/>
<stop offset="1" stop-color="#6420FF" stop-opacity="0"/>
</radialGradient>
<radialGradient id="paint3_radial_2027_3654" cx="0" cy="0" r="1" gradientUnits="userSpaceOnUse" gradientTransform="translate(38.414 12.6563) rotate(66.5198) scale(73.9536 123.889)">
<stop stop-color="#00C4CC"/>
<stop offset="1" stop-color="#00C4CC" stop-opacity="0"/>
</radialGradient>
<clipPath id="clip0_2027_3654">
<rect width="94" height="94" fill="white"/>
</clipPath>
</defs>
</svg>
