<svg width="94" height="94" viewBox="0 0 94 94" fill="none" xmlns="http://www.w3.org/2000/svg">
<g clip-path="url(#clip0_2027_3710)">
<path d="M20.9753 0.956543H72.0251C83.3078 0.956664 92.5456 10.2334 92.5456 21.5737V72.4272C92.5454 83.7672 83.3076 93.0433 72.0251 93.0435H20.9753C9.69245 93.0435 0.454997 83.7673 0.454773 72.4272V21.5737C0.454773 10.2333 9.69232 0.956543 20.9753 0.956543Z" fill="white" stroke="#B1B1B1"/>
<path d="M19.5292 33.4765C19.5066 35.1174 19.5292 36.7619 19.5292 38.4028C19.5303 38.5952 19.5868 38.7832 19.6919 38.9441C19.7969 39.105 19.946 39.232 20.1213 39.3097C25.2635 41.8802 30.4107 44.4405 35.563 46.9907C30.4532 49.5124 25.3619 52.0676 20.2599 54.6004C20.063 54.6636 19.888 54.7816 19.7553 54.9409C19.6227 55.1001 19.5378 55.2939 19.5106 55.4997V60.4373C19.851 63.7931 22.4156 66.49 25.7368 66.9854C26.3811 67.0455 27.0257 67.0344 27.6699 67.0344L56.283 67.0346C56.9742 67.0648 57.6665 67.0078 58.3436 66.8649C59.3547 66.618 60.3036 66.1622 61.1297 65.5266C61.9559 64.8911 62.6413 64.0897 63.1422 63.1734C63.469 62.5097 63.7326 61.8165 63.9295 61.1029C66.8664 62.6384 69.8671 64.0685 72.8268 65.5624C72.8975 65.6161 72.9841 65.6449 73.0734 65.6449C73.1836 65.6448 73.2894 65.6008 73.3673 65.5225C73.4453 65.4441 73.4892 65.3379 73.4892 65.2271V65.2242V60.121C73.4764 59.9528 73.415 59.7919 73.3125 59.6583C73.21 59.5246 73.0708 59.424 72.9122 59.3687L48.0677 46.9907C56.3667 42.8536 64.6668 38.7139 72.9685 34.5717C73.1155 34.5077 73.2412 34.4028 73.3308 34.2694C73.4204 34.136 73.4701 33.9797 73.4742 33.8188V28.7232C73.466 28.6594 73.4427 28.5986 73.4063 28.5457C73.3699 28.4928 73.3215 28.4495 73.265 28.4193C73.2085 28.3891 73.1457 28.3729 73.0817 28.3721C73.0177 28.3713 72.9545 28.3859 72.8973 28.4146L63.8764 32.9081C63.6664 31.9234 63.2681 30.989 62.7036 30.1568C62.0769 29.2436 61.2561 28.4817 60.3005 27.926C59.3449 27.3703 58.2784 27.0347 57.178 26.9435L26.4934 26.9434C22.8922 27.1112 19.9413 29.8792 19.5292 33.4769V33.4765Z" fill="black"/>
<path d="M25.2121 33.51C25.3709 33.1926 25.6169 32.9275 25.9209 32.7461C26.225 32.5646 26.5744 32.4745 26.9278 32.4864H56.5865L56.6059 32.4862C57.536 32.4862 58.3259 33.1723 58.4595 34.0971C58.4971 34.5976 58.4782 35.0982 58.4595 35.6024L41.8265 43.882C36.207 41.1121 30.6217 38.3083 25.0212 35.5198C25.0473 34.8499 24.905 34.131 25.2121 33.51ZM25.0212 58.4839C30.606 55.6862 36.1965 52.9 41.7927 50.1254C47.3596 52.8501 52.904 55.65 58.4634 58.4048C58.4259 59.1274 58.602 59.9101 58.2238 60.5761C58.0618 60.8608 57.8278 61.0973 57.5456 61.2619C57.2633 61.4264 56.9428 61.5131 56.6164 61.5131H56.6014L26.9317 61.5135L26.8808 61.5138C26.541 61.5138 26.2076 61.4209 25.9163 61.2451C25.625 61.0693 25.3868 60.8172 25.2272 60.5158C24.8975 59.8913 25.0473 59.1611 25.0212 58.4839Z" fill="black"/>
<path d="M19.5292 33.4762C19.9373 29.8738 22.8919 27.0987 26.4975 26.9318L57.1932 26.9316C58.2936 27.023 59.3601 27.3587 60.3157 27.9145C61.2712 28.4704 62.0919 29.2325 62.7185 30.1458C63.2832 30.9778 63.6816 31.9121 63.8917 32.8967L72.9125 28.4031C72.9698 28.3744 73.033 28.36 73.0969 28.3608C73.1608 28.3617 73.2236 28.3779 73.2801 28.4082C73.3365 28.4384 73.3849 28.4817 73.4213 28.5345C73.4577 28.5873 73.481 28.6481 73.4892 28.7118V33.8075L73.4894 33.8252C73.4894 33.9924 73.4398 34.1559 73.3471 34.2948C73.2543 34.4337 73.1226 34.5417 72.9685 34.6051C64.6665 38.7413 56.3662 42.8811 48.0677 47.0244L72.9123 59.3721C73.071 59.4274 73.2102 59.5281 73.3126 59.6618C73.4151 59.7955 73.4765 59.9563 73.4892 60.1246V65.2307C73.4892 65.3081 73.4678 65.3839 73.4274 65.4498C73.387 65.5156 73.3292 65.5689 73.2604 65.6037C73.1917 65.6385 73.1146 65.6535 73.0379 65.6469C72.9612 65.6404 72.8878 65.6126 72.8259 65.5666C69.8663 64.0612 66.8657 62.6425 63.9286 61.1069C63.7322 61.8204 63.469 62.5136 63.1424 63.1772C62.6447 64.0969 61.9615 64.9021 61.1365 65.5416C60.3115 66.181 59.3628 66.6406 58.351 66.8909C57.674 67.0338 56.9819 67.0907 56.2909 67.0603L27.6809 67.0609C27.0365 67.0609 26.3884 67.0609 25.7477 67.0118C22.4266 66.5129 19.8637 63.8095 19.5295 60.4523V55.515C19.5565 55.309 19.6413 55.1151 19.7739 54.9557C19.9066 54.7964 20.0816 54.6782 20.2786 54.6151C25.3808 52.0824 30.4719 49.527 35.5817 47.0056C30.4344 44.4315 25.2833 41.8648 20.1286 39.3057C19.9534 39.2279 19.8043 39.1009 19.6994 38.94C19.5944 38.7791 19.5379 38.5911 19.5369 38.3986C19.5292 36.7616 19.5029 35.1171 19.5292 33.4762ZM25.216 33.5101C24.9086 34.1311 25.0511 34.8497 25.0249 35.5198C30.6443 38.3085 36.2222 41.1121 41.8303 43.882C47.3721 41.1222 52.9164 38.3623 58.4632 35.6026C58.4632 35.102 58.4857 34.6015 58.4632 34.0972C58.3984 33.6498 58.1754 33.2408 57.835 32.945C57.4946 32.6492 57.0596 32.4864 56.6096 32.4863H56.5901L26.9278 32.4865C26.5744 32.4747 26.225 32.5648 25.9209 32.7462C25.6169 32.9276 25.3709 33.1927 25.2121 33.5101H25.216ZM25.0249 58.484C25.0509 59.1615 24.9048 59.8915 25.2309 60.52C25.3946 60.829 25.6408 61.0859 25.9419 61.262C26.243 61.4381 26.5871 61.5264 26.9353 61.5169L56.6164 61.5173L56.6313 61.5171C57.2955 61.5171 57.9093 61.1593 58.2384 60.58C58.613 59.9215 58.4408 59.1312 58.478 58.4086C52.9225 55.6538 47.3743 52.8537 41.8075 50.1292C36.2089 52.9076 30.6134 55.6926 25.0212 58.484H25.0249Z" fill="black"/>
</g>
<defs>
<clipPath id="clip0_2027_3710">
<rect width="94" height="94" fill="white"/>
</clipPath>
</defs>
</svg>
