<svg width="96" height="94" viewBox="0 0 96 94" fill="none" xmlns="http://www.w3.org/2000/svg">
<g clip-path="url(#clip0_2027_3678)">
<path d="M78.9999 0H17.0001C7.61122 0 0 7.6438 0 17.0729V76.9271C0 86.3562 7.61122 94 17.0001 94H78.9999C88.3888 94 96 86.3562 96 76.9271V17.0729C96 7.6438 88.3888 0 78.9999 0Z" fill="#330000"/>
<path d="M46.5199 56.4121H31.6427L28.617 65.8543C28.577 66.0273 28.4775 66.1806 28.336 66.2872C28.1946 66.3937 28.0202 66.4467 27.8436 66.4368H20.3093C19.8788 66.4368 19.7287 66.1993 19.8588 65.7242L32.7389 28.4643C32.864 28.076 32.9929 27.6361 33.1255 27.1448C33.2928 26.2814 33.3789 25.4041 33.3827 24.5246C33.375 24.4725 33.3777 24.4195 33.3905 24.3685C33.4034 24.3175 33.4262 24.2696 33.4576 24.2275C33.489 24.1855 33.5285 24.1501 33.5736 24.1234C33.6187 24.0967 33.6687 24.0793 33.7206 24.0721C33.7579 24.0664 33.7959 24.0664 33.8332 24.0721H44.0723C44.3726 24.0721 44.5434 24.1796 44.5885 24.3945L59.2067 65.7883C59.3362 66.2181 59.2067 66.4349 58.82 66.4349H50.4485C50.3048 66.451 50.1602 66.4139 50.0417 66.3306C49.9232 66.2473 49.839 66.1236 49.8047 65.9825L46.5199 56.4121ZM33.9627 48.2574H44.1361C43.8796 47.394 43.5793 46.4238 43.2352 45.3468C42.891 44.2698 42.5263 43.1162 42.1409 41.8859L40.9809 38.2006C40.5942 36.9715 40.2401 35.7852 39.9185 34.6416C39.5969 33.498 39.3047 32.455 39.0419 31.5124H38.9781C38.6153 33.2587 38.1636 34.9852 37.6248 36.685C37.0241 38.6266 36.4122 40.6103 35.789 42.6361C35.1659 44.6619 34.5571 46.5357 33.9627 48.2574Z" fill="#FF9A00"/>
<path d="M67.8991 30.9298C67.2423 30.9561 66.5873 30.8429 65.977 30.5976C65.3667 30.3524 64.8147 29.9806 64.3572 29.5066C63.901 29.0119 63.5466 28.4314 63.3147 27.7986C63.0828 27.1658 62.9778 26.4931 63.0058 25.8194C62.9834 25.1537 63.1009 24.4908 63.3506 23.8737C63.6003 23.2566 63.9765 22.6992 64.4548 22.2378C64.9285 21.7812 65.4875 21.4232 66.0996 21.1844C66.7117 20.9456 67.3647 20.8309 68.0212 20.8466C69.5666 20.8466 70.7791 21.3104 71.6588 22.2378C72.5512 23.2102 73.0237 24.498 72.9727 25.8194C72.9998 26.4959 72.8911 27.1709 72.6532 27.8044C72.4152 28.4378 72.0528 29.0167 71.5875 29.5066C71.1033 29.9859 70.5258 30.3597 69.8912 30.6046C69.2565 30.8495 68.5784 30.9602 67.8991 30.9298ZM63.4563 65.7882V34.8733C63.4563 34.485 63.6271 34.2908 63.9706 34.2908H71.8897C72.2313 34.2908 72.404 34.4793 72.404 34.8733V65.7882C72.404 66.218 72.2332 66.4347 71.8897 66.4347H64.0363C63.6496 66.4366 63.4563 66.2198 63.4563 65.7882Z" fill="#FF9A00"/>
</g>
<defs>
<clipPath id="clip0_2027_3678">
<rect width="96" height="94" fill="white"/>
</clipPath>
</defs>
</svg>
