<svg width="96" height="94" viewBox="0 0 96 94" fill="none" xmlns="http://www.w3.org/2000/svg">
<g clip-path="url(#clip0_2027_3668)">
<path d="M79.0008 0H16.9992C7.61081 0 0 7.64327 0 17.0717V76.9283C0 86.3567 7.61081 94 16.9992 94H79.0008C88.3892 94 96 86.3567 96 76.9283V17.0717C96 7.64327 88.3892 0 79.0008 0Z" fill="#001E36"/>
<path d="M21.6177 65.9191V24.5905C21.6177 24.291 21.7452 24.1384 22.0041 24.1384C22.6888 24.1384 23.3172 24.1384 24.2552 24.1063C25.1931 24.0743 26.2192 24.063 27.3147 24.0423L30.7926 23.9764C32.0157 23.955 33.2281 23.9443 34.4299 23.9443C37.6927 23.9443 40.444 24.3538 42.6838 25.1726C44.6973 25.8581 46.5338 26.9849 48.0601 28.4713C49.3543 29.7604 50.3541 31.3166 50.9902 33.0322C51.592 34.7027 51.8962 36.4665 51.8887 38.243C51.8887 41.6943 51.0946 44.5402 49.5064 46.7807C47.9069 49.0309 45.6595 50.7351 43.0665 51.6638C40.3615 52.6773 37.3544 53.0202 34.0491 53.0202C33.1112 53.0202 32.4396 53.0107 32.0532 52.9881C31.6668 52.9655 31.0871 52.9561 30.3143 52.9561V65.8588C30.3241 65.9258 30.3205 65.994 30.3039 66.0596C30.2873 66.1252 30.2579 66.1868 30.2175 66.241C30.177 66.2951 30.1263 66.3406 30.0682 66.3749C30.0101 66.4093 29.9458 66.4317 29.879 66.4409C29.8312 66.4484 29.7825 66.4484 29.7346 66.4409H22.0679C21.7602 66.4353 21.6177 66.2638 21.6177 65.9191ZM30.3143 31.9V45.3791C30.872 45.4231 31.3873 45.4444 31.86 45.4432H33.9853C35.5492 45.4378 37.1028 45.1887 38.5906 44.7047C39.866 44.3258 41.0061 43.5869 41.8753 42.5759C42.7119 41.585 43.1303 40.2035 43.1303 38.4314C43.1627 37.1801 42.8372 35.9457 42.1923 34.8746C41.5164 33.8386 40.5392 33.0367 39.3935 32.5782C37.9001 31.9957 36.3052 31.7208 34.7038 31.77C33.6721 31.77 32.7598 31.7807 31.9669 31.802C31.174 31.8234 30.6263 31.856 30.3236 31.9H30.3143Z" fill="#31A8FF"/>
<path d="M76.7891 42.9281C75.5789 42.3029 74.2896 41.846 72.9567 41.5698C71.4885 41.231 69.9873 41.0572 68.4808 41.0517C67.6662 41.0299 66.8528 41.1283 66.0666 41.3437C65.5656 41.4552 65.1202 41.7416 64.8097 42.1519C64.5999 42.4802 64.4886 42.8621 64.489 43.2521C64.5003 43.6303 64.6362 43.994 64.8754 44.2864C65.2513 44.7284 65.7111 45.0909 66.2279 45.3526C67.1456 45.8475 68.0914 46.2879 69.0605 46.6714C71.2219 47.3984 73.2874 48.3865 75.2115 49.614C76.521 50.4455 77.6051 51.5898 78.3667 52.9447C79.0086 54.2297 79.3305 55.6519 79.3047 57.0892C79.3427 58.9848 78.8034 60.8469 77.7589 62.4263C76.64 64.0283 75.0865 65.274 73.2831 66.015C71.3247 66.8791 68.9073 67.3112 66.0309 67.3112C64.2046 67.3282 62.3815 67.1546 60.5909 66.7931C59.1797 66.5332 57.8061 66.0985 56.5015 65.4989C56.3604 65.4261 56.2428 65.3145 56.1628 65.177C56.0827 65.0395 56.0433 64.8819 56.0494 64.7227V57.7392C56.0413 57.6707 56.052 57.6012 56.0804 57.5385C56.1089 57.4757 56.154 57.4219 56.2107 57.3831C56.266 57.3514 56.3296 57.3375 56.393 57.3432C56.4564 57.349 56.5165 57.374 56.5653 57.4151C58.1074 58.3282 59.7821 58.9937 61.5288 59.3876C63.0673 59.7753 64.6456 59.9814 66.2317 60.0017C67.7324 60.0017 68.8379 59.8077 69.5482 59.4196C69.868 59.2725 70.1384 59.0355 70.3269 58.7373C70.5153 58.439 70.6136 58.0923 70.61 57.7392C70.61 57.1778 70.2879 56.6383 69.6439 56.1209C68.9998 55.6035 67.6892 54.9818 65.712 54.2559C63.69 53.5492 61.7728 52.5701 60.0131 51.3453C58.7546 50.4673 57.7178 49.3061 56.9855 47.9543C56.3507 46.6802 56.0291 45.272 56.0475 43.8474C56.042 42.1314 56.5109 40.4475 57.4019 38.9832C58.4143 37.3745 59.8684 36.0941 61.5889 35.2965C63.4773 34.3483 65.8384 33.8742 68.6722 33.8742C70.3322 33.8602 71.9907 33.9786 73.632 34.2283C74.8201 34.3818 75.9816 34.6987 77.0836 35.1703C77.1711 35.1955 77.2516 35.2408 77.3186 35.3026C77.3857 35.3644 77.4375 35.441 77.4701 35.5263C77.5137 35.6839 77.5352 35.8469 77.5338 36.0105V42.5438C77.539 42.6193 77.5245 42.6948 77.4916 42.7629C77.4586 42.831 77.4086 42.8893 77.3463 42.9319C77.2594 42.9746 77.1639 42.9965 77.0672 42.9958C76.9706 42.9952 76.8754 42.972 76.7891 42.9281Z" fill="#31A8FF"/>
</g>
<defs>
<clipPath id="clip0_2027_3668">
<rect width="96" height="94" fill="white"/>
</clipPath>
</defs>
</svg>
