<svg width="96" height="94" viewBox="0 0 96 94" fill="none" xmlns="http://www.w3.org/2000/svg">
<g clip-path="url(#clip0_2027_3698)">
<path d="M16.999 6.63489e-06H78.9954C81.2284 -0.00197117 83.4398 0.438244 85.5032 1.29547C87.5667 2.15269 89.4415 3.41009 91.0205 4.99574C92.5996 6.58138 93.8518 8.46415 94.7056 10.5363C95.5594 12.6085 95.998 14.8294 95.9962 17.0719V76.9281C95.998 79.1705 95.5594 81.3913 94.7056 83.4634C93.8518 85.5355 92.5995 87.4181 91.0204 89.0036C89.4414 90.5891 87.5665 91.8463 85.5031 92.7034C83.4397 93.5604 81.2283 94.0004 78.9954 93.9981H16.999C14.7663 94.0001 12.555 93.5599 10.4919 92.7028C8.42868 91.8457 6.55403 90.5884 4.97516 89.0029C3.39629 87.4175 2.14419 85.5349 1.2905 83.463C0.436811 81.391 -0.00171841 79.1704 5.06037e-06 76.9281V17.0719C-0.00171808 14.8295 0.436798 12.6088 1.29047 10.5367C2.14413 8.46471 3.3962 6.58202 4.97505 4.9964C6.55389 3.41078 8.42853 2.15334 10.4917 1.29601C12.5549 0.438674 14.7662 -0.0017239 16.999 6.63489e-06Z" fill="#00005B"/>
<path d="M22.8 65.9209V24.5843C22.8 24.3042 22.9199 24.1425 23.2006 24.1425C23.8802 24.1425 24.5204 24.1425 25.447 24.103C26.4073 24.0635 27.4069 24.0635 28.487 24.0222C29.5671 23.9808 30.7333 23.9827 31.9669 23.9413C33.2005 23.9 34.4004 23.9019 35.6078 23.9019C38.8874 23.9019 41.598 24.3042 43.8443 25.1464C45.8527 25.8318 47.6841 26.9575 49.2055 28.442C50.4949 29.7403 51.4909 31.3022 52.1257 33.0216C52.7305 34.6953 53.0415 36.4617 53.0448 38.2422C53.0448 41.6976 52.2449 44.5501 50.645 46.7998C49.036 49.0466 46.7899 50.7539 44.1999 51.699C41.48 52.7029 38.4793 53.0638 35.1997 53.0638C34.2394 53.0638 33.5992 53.0638 33.2005 53.0244C32.8018 52.9849 32.2402 52.9849 31.4802 52.9849V65.8795C31.4891 65.9457 31.4847 66.013 31.4672 66.0775C31.4498 66.1419 31.4197 66.2022 31.3787 66.2547C31.3377 66.3073 31.2866 66.3511 31.2285 66.3835C31.1704 66.416 31.1064 66.4364 31.0403 66.4435H23.2793C22.9592 66.4435 22.8 66.2819 22.8 65.9209ZM31.5195 31.8936V45.3917C32.0811 45.4312 32.5996 45.4726 33.0788 45.4726H35.1922C36.7564 45.4737 38.3111 45.2276 39.799 44.7431C41.0741 44.3672 42.2133 43.6279 43.0787 42.615C43.9191 41.6092 44.3197 40.2444 44.3197 38.4791C44.3563 37.2248 44.0368 35.986 43.3988 34.9072C42.7296 33.863 41.7458 33.0607 40.5909 32.6174C39.0891 32.0261 37.4818 31.7528 35.8699 31.8146C34.8309 31.8146 33.9099 31.8146 33.1499 31.8541C32.6032 31.8189 32.0545 31.8321 31.5101 31.8936H31.5195Z" fill="#9999FF"/>
<path d="M58.64 34.2264H65.6391C65.8289 34.2307 66.0124 34.2952 66.1634 34.4107C66.3144 34.5262 66.4251 34.6867 66.4796 34.8693C66.6021 35.1922 66.6826 35.5297 66.7192 35.8732C66.7997 36.2737 66.8802 36.7155 66.9195 37.1178C66.9588 37.5596 67 38.0427 67 38.5635C68.2012 37.1562 69.6522 35.9851 71.2792 35.11C73.1382 34.0717 75.2322 33.5317 77.3593 33.5421C77.4252 33.5332 77.4922 33.5376 77.5563 33.5551C77.6205 33.5726 77.6805 33.6028 77.7329 33.644C77.7852 33.6852 77.8288 33.7365 77.8611 33.7948C77.8934 33.8532 77.9137 33.9175 77.9208 33.9839V41.9794C77.9208 42.3008 77.7205 42.4211 77.2806 42.4211C75.8295 42.3724 74.378 42.5069 72.9602 42.8216C71.8057 43.0624 70.6799 43.4261 69.602 43.9063C68.8281 44.2573 68.1338 44.7633 67.5616 45.3934V65.885C67.5616 66.2854 67.4006 66.4489 67.0412 66.4489H59.1529C59.0793 66.4598 59.0043 66.4559 58.9323 66.4374C58.8602 66.419 58.7926 66.3863 58.7332 66.3414C58.6738 66.2964 58.6239 66.2401 58.5864 66.1756C58.5488 66.1111 58.5244 66.0398 58.5146 65.9658V43.5454C58.5146 42.5809 58.5146 41.577 58.4734 40.5374C58.4322 39.4978 58.4341 38.4488 58.3929 37.4054C58.3929 36.4805 58.3143 35.5969 58.2338 34.6738C58.2141 34.578 58.2325 34.4782 58.2849 34.3957C58.3373 34.3132 58.4197 34.2545 58.5146 34.232C58.5146 34.1907 58.5932 34.1907 58.6344 34.232L58.64 34.2264Z" fill="#9999FF"/>
</g>
<defs>
<clipPath id="clip0_2027_3698">
<rect width="96" height="94" fill="white"/>
</clipPath>
</defs>
</svg>
